<svg xmlns="http://www.w3.org/2000/svg" viewBox="0 0 24 24">
  <path d="M19.14 12.94c.04-.3.06-.61.06-.94 0-.32-.02-.64-.07-.94l2.03-1.58a.49.49 0 0 0 .12-.61l-1.92-3.32a.49.49 0 0 0-.59-.22l-2.39.96a7.37 7.37 0 0 0-1.62-.94l-.36-2.54A.484.484 0 0 0 14 2.4H9.84a.484.484 0 0 0-.47.41L9 5.35a7.37 7.37 0 0 0-1.62.94L5 5.33a.488.488 0 0 0-.59.22L2.49 8.87a.48.48 0 0 0 .12.61l2.03 1.58c-.05.3-.07.63-.07.94s.02.64.07.94l-2.03 1.58a.49.49 0 0 0-.12.61l1.92 3.32c.12.22.37.29.59.22l2.39-.96c.5.38 1.03.7 1.62.94l.36 2.54c.05.24.24.41.48.41H14c.24 0 .44-.17.47-.41l.36-2.54c.59-.24 1.13-.56 1.62-.94l2.39.96c.22.08.47 0 .59-.22l1.92-3.32a.49.49 0 0 0-.12-.61l-2.09-1.58zM12 15.6c-1.98 0-3.6-1.62-3.6-3.6s1.62-3.6 3.6-3.6 3.6 1.62 3.6 3.6-1.62 3.6-3.6 3.6z"/>
</svg>
